<svg viewBox="0 0 1024 1024" xmlns="http://www.w3.org/2000/svg"><defs><linearGradient id="eth" x1="0" y1="1" x2="0.5" y2="0"><stop offset="0" stop-color="#5B5FE0"/><stop offset="0.55" stop-color="#7C84FF"/><stop offset="1" stop-color="#AEB6FF"/></linearGradient></defs><rect width="1024" height="1024" fill="#000000"/><g transform="translate(512 512) scale(1.0795) translate(-452.0 -582.0)"><g transform="translate(512 512) rotate(29)"><path d="M 0.00 -300.00 L 112.00 -18.00 L -112.00 -18.00 Z" fill="url(#eth)"/><path d="M -3.50 -292.00 L 3.50 -292.00 L 4.50 -26.00 L -4.50 -26.00 Z" fill="#000000"/><path d="M -104.00 12.00 L 104.00 12.00 L 0.00 170.00 Z" fill="url(#eth)"/><path d="M -3.50 14.00 L 3.50 14.00 L 2.50 166.00 L -2.50 166.00 Z" fill="#000000"/><path d="M 0.00 196.00 Q -15.00 298.40 0.00 452.00 Q 15.00 298.40 0.00 196.00 Z" fill="url(#eth)"/><path d="M -54.00 212.00 Q -73.16 294.17 -72.00 420.00 Q -49.24 296.23 -54.00 212.00 Z" fill="url(#eth)"/><path d="M 54.00 212.00 Q 49.24 296.23 72.00 420.00 Q 73.16 294.17 54.00 212.00 Z" fill="url(#eth)"/></g></g></svg>